<svg width="32" height="32" viewBox="0 0 32 32" fill="none" xmlns="http://www.w3.org/2000/svg">
  <defs>
    <!-- Elegant indigo to purple gradient -->
    <linearGradient id="icon-bg-gradient" x1="0%" y1="0%" x2="100%" y2="100%">
      <stop offset="0%" style="stop-color:#6366F1;stop-opacity:1" />
      <stop offset="50%" style="stop-color:#8B5CF6;stop-opacity:1" />
      <stop offset="100%" style="stop-color:#A855F7;stop-opacity:1" />
    </linearGradient>
    
    <!-- White gradient for icon elements -->
    <linearGradient id="icon-element-gradient" x1="0%" y1="0%" x2="100%" y2="100%">
      <stop offset="0%" style="stop-color:#FFFFFF;stop-opacity:1" />
      <stop offset="100%" style="stop-color:#F3F4F6;stop-opacity:0.95" />
    </linearGradient>
    
    <!-- Subtle inner highlight -->
    <radialGradient id="icon-highlight" cx="50%" cy="30%" r="70%">
      <stop offset="0%" style="stop-color:#FFFFFF;stop-opacity:0.3" />
      <stop offset="100%" style="stop-color:#FFFFFF;stop-opacity:0" />
    </radialGradient>
  </defs>
  
  <!-- Rounded square background with gradient -->
  <rect width="32" height="32" rx="7" fill="url(#icon-bg-gradient)"/>
  
  <!-- Subtle highlight overlay -->
  <rect width="32" height="32" rx="7" fill="url(#icon-highlight)"/>
  
  <!-- Modern geometric icon - API connection nodes -->
  <g fill="none" stroke="url(#icon-element-gradient)" strokeLinecap="round">
    <!-- Central node -->
    <circle cx="16" cy="16" r="3.5" fill="url(#icon-element-gradient)"/>
    
    <!-- Connecting lines -->
    <line x1="16" y1="12.5" x2="16" y2="9" strokeWidth="1.5" opacity="0.9"/>
    <line x1="19.5" y1="16" x2="23" y2="16" strokeWidth="1.5" opacity="0.9"/>
    <line x1="16" y1="19.5" x2="16" y2="23" strokeWidth="1.5" opacity="0.9"/>
    <line x1="12.5" y1="16" x2="9" y2="16" strokeWidth="1.5" opacity="0.9"/>
    
    <!-- Corner nodes -->
    <circle cx="16" cy="9" r="1.5" fill="url(#icon-element-gradient)"/>
    <circle cx="23" cy="16" r="1.5" fill="url(#icon-element-gradient)"/>
    <circle cx="16" cy="23" r="1.5" fill="url(#icon-element-gradient)"/>
    <circle cx="9" cy="16" r="1.5" fill="url(#icon-element-gradient)"/>
    
    <!-- Diagonal connections for depth -->
    <line x1="18" y1="14" x2="21" y2="11" strokeWidth="1" opacity="0.5"/>
    <line x1="18" y1="18" x2="21" y2="21" strokeWidth="1" opacity="0.5"/>
    <line x1="14" y1="18" x2="11" y2="21" strokeWidth="1" opacity="0.5"/>
    <line x1="14" y1="14" x2="11" y2="11" strokeWidth="1" opacity="0.5"/>
  </g>
</svg>
