<svg width="32" height="32" viewBox="0 0 32 32" fill="none" xmlns="http://www.w3.org/2000/svg">
  <defs>
    <linearGradient id="restforge-gradient" x1="0%" y1="0%" x2="100%" y2="100%">
      <stop offset="0%" style="stop-color:#8B5CF6;stop-opacity:1" />
      <stop offset="30%" style="stop-color:#EC4899;stop-opacity:1" />
      <stop offset="70%" style="stop-color:#EF4444;stop-opacity:1" />
      <stop offset="100%" style="stop-color:#F97316;stop-opacity:1" />
    </linearGradient>
  </defs>
  
  <!-- Background rounded rectangle -->
  <rect width="32" height="32" rx="8" fill="url(#restforge-gradient)"/>
  
  <!-- RF letters -->
  <g fill="white">
    <!-- R -->
    <path d="M6 8 L6 24 L8 24 L8 17 L13 17 C15.5 17 17 15.5 17 13 C17 10.5 15.5 9 13 9 L6 9 Z M8 11 L13 11 C14 11 15 12 15 13 C15 14 14 15 13 15 L8 15 Z M13 15 L16 24 L18 24 L15 15" />
    
    <!-- F -->
    <path d="M20 8 L20 24 L22 24 L22 17 L28 17 L28 15 L22 15 L22 10 L29 10 L29 8 Z" />
  </g>
</svg>